HIERARCHY
ROOT Hips
{
	OFFSET -0.001795 -0.223333 0.028219
	CHANNELS 6 Xposition Yposition Zposition Zrotation Yrotation Xrotation 
	JOINT LeftUpLeg
	{
		OFFSET 0.069520 -0.091406 -0.006815
		CHANNELS 3 Zrotation Yrotation Xrotation
		JOINT LeftLeg
		{
			OFFSET 0.034277 -0.375199 -0.004496
			CHANNELS 3 Zrotation Yrotation Xrotation
			JOINT LeftFoot
			{
				OFFSET -0.013596 -0.397961 -0.043693
				CHANNELS 3 Zrotation Yrotation Xrotation
				JOINT LeftToe
				{
					OFFSET 0.026358 -0.055791 0.119288
					CHANNELS 3 Zrotation Yrotation Xrotation
					End Site
					{
						OFFSET 0.000000 0.000000 0.000000
					}
				}
			}
		}
	}
	JOINT RightUpLeg
	{
		OFFSET -0.067670 -0.090522 -0.004320
		CHANNELS 3 Zrotation Yrotation Xrotation
		JOINT RightLeg
		{
			OFFSET -0.038290 -0.382569 -0.008850
			CHANNELS 3 Zrotation Yrotation Xrotation
			JOINT RightFoot
			{
				OFFSET 0.015774 -0.398415 -0.042312
				CHANNELS 3 Zrotation Yrotation Xrotation
				JOINT RightToe
				{
					OFFSET -0.025372 -0.048144 0.123348
					CHANNELS 3 Zrotation Yrotation Xrotation
					End Site
					{
						OFFSET 0.000000 0.000000 0.000000
					}
				}
			}
		}
	}
	JOINT Spine
	{
		OFFSET -0.002533 0.108963 -0.026696
		CHANNELS 3 Zrotation Yrotation Xrotation
		JOINT Spine1
		{
			OFFSET 0.005487 0.135180 0.001092
			CHANNELS 3 Zrotation Yrotation Xrotation
			JOINT Spine2
			{
				OFFSET 0.001457 0.052922 0.025425
				CHANNELS 3 Zrotation Yrotation Xrotation
				JOINT Neck
				{
					OFFSET -0.002778 0.213870 -0.042857
					CHANNELS 3 Zrotation Yrotation Xrotation
					JOINT Head
					{
						OFFSET 0.005152 0.064970 0.051349
						CHANNELS 3 Zrotation Yrotation Xrotation
						End Site
						{
							OFFSET 0.000000 0.000000 0.000000
						}
					}
				}
				JOINT LeftShoulder
				{
					OFFSET 0.078845 0.121749 -0.034090
					CHANNELS 3 Zrotation Yrotation Xrotation
					JOINT LeftArm
					{
						OFFSET 0.090977 0.030469 -0.008868
						CHANNELS 3 Zrotation Yrotation Xrotation
						JOINT LeftForeArm
						{
							OFFSET 0.259612 -0.012772 -0.027456
							CHANNELS 3 Zrotation Yrotation Xrotation
							JOINT LeftHand
							{
								OFFSET 0.249234 0.008986 -0.001171
								CHANNELS 3 Zrotation Yrotation Xrotation
								End Site
								{
									OFFSET 0.000000 0.000000 0.000000
								}
							}
						}
					}
				}
				JOINT RightShoulder
				{
					OFFSET -0.081759 0.118833 -0.038615
					CHANNELS 3 Zrotation Yrotation Xrotation
					JOINT RightArm
					{
						OFFSET -0.096012 0.032551 -0.009143
						CHANNELS 3 Zrotation Yrotation Xrotation
						JOINT RightForeArm
						{
							OFFSET -0.253742 -0.013329 -0.021401
							CHANNELS 3 Zrotation Yrotation Xrotation
							JOINT RightHand
							{
								OFFSET -0.255298 0.007772 -0.005559
								CHANNELS 3 Zrotation Yrotation Xrotation
								End Site
								{
									OFFSET 0.000000 0.000000 0.000000
								}
							}
						}
					}
				}
			}
		}
	}
}
MOTION
Frames: 8
Frame Time: 0.050000
0.201123 0.908773 -0.008967 -2.299439 -19.687407 -1.467240 14.192149 1.646335 -14.590312 -12.566374 6.076795 26.406336 8.869445 17.228027 11.975253 0.000000 0.000000 0.000000 -15.782986 1.003989 -12.439732 9.072222 -0.405739 21.208628 -6.106183 -16.860510 7.961857 0.000000 0.000000 0.000000 1.897756 0.386259 37.628119 -6.729288 1.836019 -29.857814 -5.616431 3.558719 23.845978 16.855796 -5.918972 -39.163141 0.000000 0.000000 0.000000 -26.744775 -19.830898 12.917913 -32.230917 -18.867722 -1.306705 6.234392 -48.564337 -0.291976 0.000000 0.000000 0.000000 39.898770 6.220267 -1.813360 44.000817 12.025437 -0.903077 14.422616 45.386947 7.380465 0.000000 0.000000 0.000000 
0.192758 0.908481 -0.013120 -2.387117 -20.163568 -1.150953 14.821457 1.838924 -14.881503 -12.391528 6.062536 26.442416 8.960787 17.286680 12.543793 0.000000 0.000000 0.000000 -15.267764 1.036711 -13.343872 9.440637 -0.425143 21.893729 -6.190886 -16.872172 7.271678 0.000000 0.000000 0.000000 2.082976 0.422818 38.075702 -6.672330 1.817318 -29.873812 -5.764607 3.250325 24.013635 16.645909 -5.936740 -39.001423 0.000000 0.000000 0.000000 -26.472035 -20.026271 13.159626 -32.742857 -19.885162 -1.088246 6.769850 -48.347143 -0.472412 0.000000 0.000000 0.000000 39.810245 6.413130 -1.936800 44.273686 11.956269 -0.851262 14.272923 45.714571 7.327432 0.000000 0.000000 0.000000 
0.183863 0.908746 -0.017561 -2.411998 -20.608763 -0.729477 15.247465 1.997495 -15.276559 -11.967241 5.917084 26.399940 9.067778 17.345635 13.319132 0.000000 0.000000 0.000000 -14.741768 1.081435 -14.173468 9.744533 -0.445209 22.231540 -6.272654 -16.890788 6.641978 0.000000 0.000000 0.000000 2.123716 0.498166 38.391897 -6.389134 1.750248 -29.686346 -6.121662 3.105982 23.939432 16.511714 -5.948414 -38.770721 0.000000 0.000000 0.000000 -25.850621 -20.258668 13.262484 -33.281036 -20.319496 -0.956830 6.960414 -48.262039 -0.515976 0.000000 0.000000 0.000000 39.715631 6.512677 -2.028645 44.291842 11.452868 -0.966959 14.814812 46.363039 7.634212 0.000000 0.000000 0.000000 
0.174653 0.909725 -0.021903 -2.351618 -21.036730 -0.291360 15.630222 2.116087 -15.341869 -11.674891 5.705535 25.721906 9.184397 17.407512 14.140766 0.000000 0.000000 0.000000 -14.310754 1.138997 -15.125600 10.109237 -0.473763 22.704959 -6.335262 -16.935897 6.234737 0.000000 0.000000 0.000000 2.240040 0.535618 38.562214 -6.350871 1.733910 -29.775116 -6.303961 2.853601 24.201378 16.283088 -6.017312 -38.347612 0.000000 0.000000 0.000000 -25.371788 -20.627557 13.545004 -33.837616 -20.862812 -0.825698 7.652099 -48.096774 -0.769139 0.000000 0.000000 0.000000 39.610851 6.557949 -2.243914 44.450858 11.270758 -0.973791 15.462455 46.341742 7.853119 0.000000 0.000000 0.000000 
0.165210 0.910520 -0.026031 -2.315019 -21.203136 -0.078301 15.950954 2.198068 -15.341809 -11.185710 5.423010 25.301805 9.164989 17.290856 14.902928 0.000000 0.000000 0.000000 -13.795830 1.170391 -15.502630 10.378482 -0.515064 22.810197 -6.465595 -17.052762 5.706965 0.000000 0.000000 0.000000 2.332478 0.554139 38.869121 -6.237327 1.704972 -29.609701 -6.558724 2.619666 24.066991 15.918555 -5.956389 -37.995436 0.000000 0.000000 0.000000 -25.175248 -20.459956 13.468432 -34.001415 -21.173955 -0.737407 7.998969 -49.010277 -0.893636 0.000000 0.000000 0.000000 39.442138 6.592841 -2.337599 44.375249 10.732284 -1.113619 16.569128 46.808773 8.374654 0.000000 0.000000 0.000000 
0.155604 0.911631 -0.029886 -2.070372 -20.980777 -0.008505 16.057840 2.157447 -14.977438 -10.771560 5.013562 24.230192 9.030193 17.049925 15.467697 0.000000 0.000000 0.000000 -13.469109 1.174822 -15.726035 10.623430 -0.580822 22.978638 -6.714145 -17.423450 5.302560 0.000000 0.000000 0.000000 2.688282 0.434411 39.282350 -6.391641 1.740342 -29.638209 -6.841988 2.351736 24.123857 15.644163 -5.831277 -38.056464 0.000000 0.000000 0.000000 -24.855041 -20.684960 13.552841 -34.551599 -21.498666 -0.623194 8.813307 -50.092789 -1.227906 0.000000 0.000000 0.000000 39.026648 6.405666 -2.463095 44.665985 10.792887 -1.109900 16.892601 46.644850 8.465139 0.000000 0.000000 0.000000 
0.145808 0.912244 -0.033738 -1.806405 -20.717019 0.044662 16.209951 2.125896 -14.613716 -10.427518 4.649181 23.166451 8.868527 16.783178 15.952980 0.000000 0.000000 0.000000 -13.132143 1.178820 -15.916784 10.835413 -0.642406 23.142348 -6.997724 -17.837201 4.773367 0.000000 0.000000 0.000000 2.999428 0.314093 39.589379 -6.370589 1.738907 -29.652374 -7.236038 2.302980 24.089662 15.408274 -5.705792 -38.061622 0.000000 0.000000 0.000000 -24.877687 -20.678879 13.504417 -34.433042 -21.658490 -0.573944 8.911379 -51.676755 -1.301235 0.000000 0.000000 0.000000 38.566299 6.539051 -2.202106 44.716592 10.882995 -1.127806 17.418651 46.652034 8.702846 0.000000 0.000000 0.000000 
0.135850 0.912993 -0.037567 -1.559448 -20.288794 0.121881 16.263669 2.063960 -14.295138 -9.883125 4.200944 22.063166 8.645033 16.439208 16.462785 0.000000 0.000000 0.000000 -12.729701 1.180329 -16.100592 10.987583 -0.702740 23.324392 -7.327941 -18.377386 4.329794 0.000000 0.000000 0.000000 3.478130 0.112289 39.967530 -6.700469 1.815789 -29.970753 -7.368162 2.181214 24.310459 15.160465 -5.502054 -38.470751 0.000000 0.000000 0.000000 -24.876031 -20.621869 13.444383 -34.706560 -21.905636 -0.509398 8.808102 -53.060179 -1.237000 0.000000 0.000000 0.000000 38.016949 6.378335 -2.166635 44.845855 11.127282 -1.111866 17.841823 46.543311 8.874040 0.000000 0.000000 0.000000 
